<svg width="196" height="64" viewBox="0 0 196 64" fill="none" xmlns="http://www.w3.org/2000/svg">
    <path fill-rule="evenodd" clip-rule="evenodd" d="M5.00011 0.887653C-0.137385 2.27515 -1.07489 8.46265 2.97512 11.6502C6.05012 14.0502 29.1876 12.2877 36.7251 12.8502C47.7876 13.7127 51.3126 26.5377 45.7626 33.1752C37.3626 43.1502 23.0751 33.4377 18.8376 41.1627C17.6001 43.4127 18.0126 46.1127 19.4001 47.8752C20.9001 49.7502 22.7376 50.2377 25.9626 50.2002C37.6626 50.1627 45.1251 51.1002 53.4126 42.7752C67.8501 28.1877 59.1501 3.96265 39.6501 0.962653C36.6126 0.475153 7.10012 0.362653 5.00011 0.887653Z" fill="#83067B"/>
    <path fill-rule="evenodd" clip-rule="evenodd" d="M12.9499 17.6875C6.94993 18.55 2.82493 22.45 1.17493 27.3625C-0.100069 31.2625 0.462431 43.0375 0.462431 47.9875C0.462431 54.4 -1.07507 63.25 6.31243 63.55C14.4124 63.8875 12.6124 53.6875 12.6124 48.325C12.6124 40.525 11.3749 34.825 16.8124 31.225C21.8749 27.8875 31.2499 31.1125 36.1624 29.3125C41.8999 27.25 41.2624 18.0625 34.2124 17.575C30.0124 17.2375 16.7749 17.125 12.9499 17.6875Z" fill="#640D5E"/>
    <path fill-rule="evenodd" clip-rule="evenodd" d="M174.162 30.85C171.35 37.075 161.6 45.0625 165.387 48.8125C171.2 54.5125 176.15 40.7125 180.237 36.8875C181.212 38.6125 187.512 48.1375 189.05 49.2625C191.487 50.9875 198.162 49.7875 194.75 43.9C193.1 41.05 186.65 32.575 185.9 30.85L191.375 23.3125C192.612 21.5875 196.775 17.3125 193.85 14.65C190.625 11.725 187.55 14.725 185.562 17.5C183.837 19.9 181.775 22.675 180.2 25.075C176.075 20.875 171.837 10.0375 166.362 14.5C162.087 18.025 171.762 26.0125 174.162 30.85Z" fill="#83067B"/>
    <path fill-rule="evenodd" clip-rule="evenodd" d="M126.725 14.2375C124.138 14.65 121.625 14.65 121.588 17.5375C121.55 20.65 123.988 20.65 126.65 20.95C127.813 31.75 123.763 45.8125 131.15 49.1125C133.738 50.275 138.313 50.275 141.2 49.6375C143.75 49.075 147.388 46.8625 145.1 43.7125C143.15 41.0125 138.725 44.5 136.625 42.4C134.975 40.75 135.688 24.5125 135.688 20.9125C138.763 20.875 142.663 21.1 142.813 17.8375C143 13.975 138.913 14.35 135.688 14.35C135.725 9.54996 136.925 1.48746 131.3 1.33746C125.338 1.18746 126.763 9.47496 126.725 14.2375Z" fill="#83067B"/>
    <path fill-rule="evenodd" clip-rule="evenodd" d="M68.825 6.09993V42.5874C68.825 45.6249 68.8625 48.6624 71.4875 49.7499C74.7875 51.0624 77.3 48.7374 77.675 46.0749C78.0875 43.1874 77.8625 11.4999 77.7875 6.09993C77.75 2.72493 76.7 0.212426 73.25 0.249926C69.8375 0.249926 68.825 2.79993 68.825 6.09993Z" fill="#83067B"/>
    <path fill-rule="evenodd" clip-rule="evenodd" d="M151.85 13.8626C148.663 15.0626 149.038 18.5126 149.038 22.3001V44.8376C149.15 48.1376 151.4 51.3251 155.263 49.7126C158.263 48.4751 158 44.8001 158 41.3126V18.7751C157.888 15.3251 155.563 12.4751 151.85 13.8626Z" fill="#83067B"/>
    <path fill-rule="evenodd" clip-rule="evenodd" d="M101.484 28.3185C103.996 27.802 106.549 27.2767 108.95 26.5754C109.025 20.5004 105.463 18.9254 99.5377 20.0129C96.2347 20.6274 95.0165 22.5105 93.9745 24.1211C92.9817 25.6558 92.1488 26.9431 89.8252 26.6504C85.6627 26.1254 85.4377 20.5754 90.2377 16.7504C93.2752 14.3129 98.4877 13.4129 103.4 13.5254C118.347 13.8846 118.048 22.1619 117.724 31.1139C117.609 34.3126 117.49 37.5974 118.063 40.6379C118.161 41.1706 118.35 41.8263 118.554 42.5327C119.053 44.2628 119.64 46.2973 119.188 47.5754C117.988 50.8379 112.625 51.5129 109.738 45.1379C108.87 45.5381 108.063 46.0793 107.202 46.6558C106.127 47.3757 104.97 48.1507 103.513 48.7754C96.3877 51.7754 85.8877 49.7129 85.0627 40.9379C84.2144 31.8707 92.5828 30.1495 101.484 28.3185ZM105.59 32.9826C106.804 32.6386 108.047 32.2861 109.062 32.1623C109.058 32.2766 109.054 32.3899 109.049 32.5022C108.871 37.2852 108.764 40.163 105.65 42.3248C99.3872 46.6373 92.1497 42.6248 94.4372 37.4498C95.4835 35.0717 99.3717 34.3291 102.293 33.771C102.827 33.6691 103.329 33.5733 103.775 33.4748C104.348 33.3346 104.965 33.1597 105.59 32.9826Z" fill="#83067B"/>
    <path fill-rule="evenodd" clip-rule="evenodd" d="M151.963 0.962275C146.375 3.09978 149.3 11.1248 155.225 9.09978C160.175 7.41228 157.963 -1.32522 151.963 0.962275Z" fill="#83067B"/>
</svg>
