<svg width="18" height="20" viewBox="0 0 18 20" fill="none" xmlns="http://www.w3.org/2000/svg">
    <path d="M10.032 0.410077C9.75349 0.146732 9.3847 0 9.00138 0C8.61805 0 8.24927 0.146732 7.97072 0.410077L0.703609 7.27813C0.481097 7.48869 0.30392 7.74247 0.182933 8.02391C0.0619461 8.30535 -0.000302404 8.60853 1.10455e-06 8.91488V17.2712C0.000398817 17.8677 0.237664 18.4397 0.659642 18.8614C1.08162 19.2831 1.65378 19.52 2.25035 19.52H4.50069C5.09752 19.52 5.6699 19.2829 6.09192 18.8609C6.51394 18.4389 6.75103 17.8665 6.75103 17.2697V13.5191C6.75103 13.3201 6.83006 13.1293 6.97074 12.9887C7.11141 12.848 7.30221 12.769 7.50115 12.769H10.5016C10.7006 12.769 10.8913 12.848 11.032 12.9887C11.1727 13.1293 11.2517 13.3201 11.2517 13.5191V17.2697C11.2517 17.8665 11.4888 18.4389 11.9108 18.8609C12.3329 19.2829 12.9052 19.52 13.5021 19.52H15.7524C16.3492 19.52 16.9216 19.2829 17.3436 18.8609C17.7657 18.4389 18.0028 17.8665 18.0028 17.2697V8.91338C18.0027 8.60717 17.9401 8.30421 17.8188 8.02304C17.6976 7.74186 17.5202 7.48839 17.2976 7.27813L10.032 0.410077Z" fill="#860579"/>
</svg>
