<svg width="18" height="20" viewBox="0 0 18 20" fill="none" xmlns="http://www.w3.org/2000/svg">
    <path d="M7.9695 0.410014C8.248 0.146709 8.61673 0 9 0C9.38327 0 9.752 0.146709 10.0305 0.410014L17.2965 7.27851C17.7465 7.70301 18 8.29551 18 8.91351V17.2685C18 17.8653 17.7629 18.4375 17.341 18.8595C16.919 19.2815 16.3467 19.5185 15.75 19.5185H12.75C12.4544 19.5185 12.1617 19.4603 11.8886 19.3471C11.6155 19.2339 11.3674 19.0681 11.1585 18.859C10.9495 18.6499 10.7838 18.4017 10.6708 18.1285C10.5579 17.8554 10.4998 17.5626 10.5 17.267V13.517C10.5 13.3181 10.421 13.1273 10.2803 12.9867C10.1397 12.846 9.94891 12.767 9.75 12.767H8.25C8.05109 12.767 7.86032 12.846 7.71967 12.9867C7.57902 13.1273 7.5 13.3181 7.5 13.517V17.267C7.5 17.8638 7.26295 18.436 6.84099 18.858C6.41903 19.28 5.84674 19.517 5.25 19.517H2.25C1.65326 19.517 1.08097 19.28 0.65901 18.858C0.237053 18.436 0 17.8638 0 17.267V8.91201C0 8.29401 0.255 7.70151 0.705 7.27701L7.9695 0.410014ZM9 1.49901L1.734 8.36901C1.66024 8.43894 1.60146 8.52314 1.56123 8.61648C1.52101 8.70983 1.50017 8.81037 1.5 8.91201V17.267C1.5 17.4659 1.57902 17.6567 1.71967 17.7973C1.86032 17.938 2.05109 18.017 2.25 18.017H5.25C5.44891 18.017 5.63968 17.938 5.78033 17.7973C5.92098 17.6567 6 17.4659 6 17.267V13.517C6 12.9203 6.23705 12.348 6.65901 11.926C7.08097 11.5041 7.65326 11.267 8.25 11.267H9.75C10.3467 11.267 10.919 11.5041 11.341 11.926C11.7629 12.348 12 12.9203 12 13.517V17.267C12 17.4659 12.079 17.6567 12.2197 17.7973C12.3603 17.938 12.5511 18.017 12.75 18.017H15.75C15.9489 18.017 16.1397 17.938 16.2803 17.7973C16.421 17.6567 16.5 17.4659 16.5 17.267V8.91201C16.5 8.81012 16.4793 8.70929 16.4391 8.61567C16.3988 8.52205 16.3399 8.43762 16.266 8.36751L9 1.49901Z" fill="#860579"/>
</svg>
