<svg width="12" height="14" viewBox="0 0 12 14" fill="none" xmlns="http://www.w3.org/2000/svg">
    <path fill-rule="evenodd" clip-rule="evenodd" d="M6.167 4.66602C5.52367 4.66602 5.00034 5.18935 5.00034 5.83335C5.00034 6.47668 5.52367 6.99935 6.167 6.99935C6.81034 6.99935 7.33367 6.47668 7.33367 5.83335C7.33367 5.18935 6.81034 4.66602 6.167 4.66602ZM6.167 7.99935C4.97234 7.99935 4.00034 7.02802 4.00034 5.83335C4.00034 4.63802 4.97234 3.66602 6.167 3.66602C7.36167 3.66602 8.33367 4.63802 8.33367 5.83335C8.33367 7.02802 7.36167 7.99935 6.167 7.99935Z" fill="#860579"/>
    <mask id="mask0_742_252" style="mask-type:luminance" maskUnits="userSpaceOnUse" x="0" y="0" width="12" height="14">
        <path fill-rule="evenodd" clip-rule="evenodd" d="M0.666672 0.333008H11.6663V13.333H0.666672V0.333008Z" fill="white"/>
    </mask>
    <g mask="url(#mask0_742_252)">
        <path fill-rule="evenodd" clip-rule="evenodd" d="M6.16634 1.33301C3.685 1.33301 1.66634 3.37101 1.66634 5.87501C1.66634 9.06101 5.41567 12.165 6.16634 12.3303C6.917 12.1643 10.6663 9.06034 10.6663 5.87501C10.6663 3.37101 8.64767 1.33301 6.16634 1.33301ZM6.16634 13.333C4.97034 13.333 0.666336 9.63167 0.666336 5.87501C0.666336 2.81901 3.13367 0.333008 6.16634 0.333008C9.199 0.333008 11.6663 2.81901 11.6663 5.87501C11.6663 9.63167 7.36234 13.333 6.16634 13.333Z" fill="#860579"/>
    </g>
</svg>
