<svg width="24" height="24" viewBox="0 0 24 24" fill="none" xmlns="http://www.w3.org/2000/svg">
    <path d="M9.05455 22.75C10.4215 22.75 11.5245 22.75 12.3915 22.633C13.2915 22.513 14.0495 22.253 14.6515 21.652C15.1755 21.127 15.4415 20.482 15.5805 19.724C15.7155 18.987 15.7415 18.086 15.7475 17.004C15.7486 16.8051 15.6706 16.6139 15.5307 16.4725C15.3908 16.3311 15.2005 16.2511 15.0015 16.25C14.8026 16.2489 14.6114 16.3269 14.47 16.4668C14.3286 16.6067 14.2486 16.7971 14.2475 16.996C14.2415 18.089 14.2135 18.864 14.1055 19.453C14.0005 20.019 13.8335 20.348 13.5905 20.591C13.3135 20.868 12.9245 21.048 12.1905 21.147C11.4355 21.248 10.4345 21.25 8.99955 21.25L7.99955 21.25C6.56355 21.25 5.56255 21.248 4.80755 21.147C4.07355 21.048 3.68555 20.867 3.40755 20.591C3.13155 20.314 2.95155 19.926 2.85255 19.191C2.75055 18.437 2.74955 17.435 2.74955 16L2.74955 8C2.74955 6.565 2.75055 5.564 2.85255 4.808C2.95155 4.074 3.13155 3.686 3.40855 3.409C3.68555 3.132 4.07355 2.952 4.80755 2.853C5.56255 2.752 6.56355 2.75 7.99955 2.75L8.99955 2.75C10.4345 2.75 11.4355 2.752 12.1915 2.853C12.9245 2.952 13.3135 3.133 13.5905 3.409C13.8335 3.653 14.0005 3.981 14.1055 4.547C14.2135 5.136 14.2415 5.911 14.2475 7.004C14.2481 7.10249 14.268 7.19992 14.3062 7.29071C14.3443 7.3815 14.4 7.46389 14.47 7.53316C14.5401 7.60243 14.623 7.65724 14.7142 7.69444C14.8054 7.73165 14.9031 7.75053 15.0015 7.75C15.1 7.74947 15.1975 7.72956 15.2883 7.69138C15.379 7.6532 15.4614 7.59752 15.5307 7.5275C15.6 7.45749 15.6548 7.37451 15.692 7.28332C15.7292 7.19212 15.7481 7.09449 15.7475 6.996C15.7415 5.914 15.7155 5.013 15.5805 4.276C15.4405 3.518 15.1755 2.873 14.6505 2.348C14.0495 1.746 13.2905 1.488 12.3905 1.366C11.5245 1.25 10.4215 1.25 9.05455 1.25L7.94455 1.25C6.57655 1.25 5.47455 1.25 4.60755 1.366C3.70755 1.488 2.94955 1.746 2.34755 2.348C1.74555 2.95 1.48755 3.708 1.36555 4.608C1.24955 5.475 1.24955 6.578 1.24955 7.945L1.24955 16.055C1.24955 17.422 1.24955 18.525 1.36555 19.392C1.48655 20.292 1.74555 21.05 2.34755 21.652C2.94955 22.254 3.70755 22.512 4.60755 22.633C5.47455 22.75 6.57755 22.75 7.94455 22.75L9.05455 22.75Z" fill="black"/>
    <path d="M8.99944 12.7496C8.80053 12.7496 8.60976 12.6706 8.46911 12.53C8.32846 12.3893 8.24944 12.1986 8.24944 11.9996C8.24944 11.8007 8.32846 11.61 8.46911 11.4693C8.60976 11.3287 8.80053 11.2496 8.99944 11.2496L19.9724 11.2496L18.0114 9.56964C17.8603 9.44021 17.7667 9.25603 17.7513 9.05762C17.7359 8.85921 17.8 8.66281 17.9294 8.51164C18.0589 8.36046 18.243 8.2669 18.4415 8.25152C18.6399 8.23614 18.8363 8.30021 18.9874 8.42964L22.4874 11.4296C22.5698 11.5 22.6359 11.5875 22.6812 11.6859C22.7265 11.7843 22.75 11.8913 22.75 11.9996C22.75 12.108 22.7265 12.215 22.6812 12.3134C22.6359 12.4118 22.5698 12.4992 22.4874 12.5696L18.9874 15.5696C18.9126 15.6337 18.8258 15.6824 18.7322 15.713C18.6385 15.7436 18.5397 15.7554 18.4415 15.7478C18.3432 15.7401 18.2474 15.7133 18.1596 15.6686C18.0717 15.624 17.9935 15.5625 17.9294 15.4876C17.8654 15.4128 17.8166 15.326 17.7861 15.2324C17.7555 15.1387 17.7437 15.0399 17.7513 14.9417C17.7589 14.8434 17.7858 14.7476 17.8305 14.6598C17.8751 14.5719 17.9366 14.4937 18.0114 14.4296L19.9714 12.7496L8.99944 12.7496Z" fill="black"/>
</svg>